<?xml version="1.0" encoding="utf-8"?>
<!-- Generator: Adobe Illustrator 25.2.3, SVG Export Plug-In . SVG Version: 6.00 Build 0)  -->
<svg version="1.1" id="Layer_1" xmlns="http://www.w3.org/2000/svg" xmlns:xlink="http://www.w3.org/1999/xlink" x="0px" y="0px"
	 viewBox="0 0 500 500" style="enable-background:new 0 0 500 500;" xml:space="preserve">
<style type="text/css">
	.st0{fill:none;}
	.st1{fill:#0891B2;}
	.st2{fill:#22D3EE;}
</style>
<g>
	<path class="st0" d="M217.68,167.32c0-1.29-1.05-2.34-2.34-2.34s-2.34,1.05-2.34,2.34c0,1.29,1.05,2.34,2.34,2.34
		S217.68,168.61,217.68,167.32z"/>
	<path class="st0" d="M263.58,231.13c-0.4-2.56-0.79-4.53-0.99-6.51c-0.29-2.85-1.97-4.42-4.49-5.33c-0.45-0.16-0.92-0.32-1.33-0.56
		c-1.8-1.04-3.39-0.68-4.98,0.55c-2.95,2.28-5.94,4.49-8.93,6.72c-2.41,1.8-3.37,8.6-1.47,10.95c0.41,0.51,1.05,0.91,1.67,1.14
		c2.2,0.82,4.42,1.57,6.65,2.29c1.75,0.56,3.38,0.31,4.87-0.86c2.38-1.88,4.89-3.61,7.18-5.59
		C262.67,233.14,263.13,231.85,263.58,231.13z"/>
	<path class="st0" d="M228.31,209.98c-0.2,2.61,0.04,5.25,0.12,7.87c0.05,1.73,0.72,3.01,2.46,3.7c1.53,0.61,2.99,1.42,4.46,2.2
		c1.65,0.88,3.15,0.67,4.63-0.42c2.84-2.09,5.63-4.27,8.6-6.15c2.8-1.78,3.95-3.77,2.95-7.22c-1.88-6.49,0.11-5.52-6.75-8.35
		c-1.15-0.47-2.3-0.95-3.46-1.41c-0.45-0.17-0.92-0.28-1.54-0.46c-0.6,0.28-1.34,0.5-1.94,0.92c-2.66,1.86-5.39,3.65-7.86,5.74
		C229.06,207.2,228.41,208.74,228.31,209.98z"/>
	<path class="st0" d="M223.19,167.69c1.29,0,2.34-1.05,2.34-2.34c0-1.29-1.05-2.34-2.34-2.34s-2.34,1.05-2.34,2.34
		C220.85,166.64,221.9,167.69,223.19,167.69z"/>
	<path class="st0" d="M248.1,244.68c-1.25-0.37-2.46-0.91-3.7-1.33c-5.4-1.84-4.68-2.05-6.93,2.89c-0.93,2.03-0.33,3.2,1.41,4.01
		c2.87,1.35,5.82,2.51,8.68,3.88c1.78,0.85,2.49-0.1,2.83-1.51c0.32-1.33,0.35-2.74,0.48-3.88
		C250.94,246.52,250.05,245.25,248.1,244.68z"/>
	<path class="st0" d="M223.86,212.1c0.98-3.71-1-6.77-4.41-9.21c-1.62-1.16-2.57-1.1-3.08,0.82c-0.89,3.3-1.68,6.68-1.92,10.07
		c-0.17,2.33,0.59,4.74,1.07,7.1c0.24,1.19,1.03,1.46,2.19,0.88C224.56,218.34,223.87,219.63,223.86,212.1z"/>
	<path class="st0" d="M233.42,227.63c-2.01-1.18-4.13-2.21-6.3-3.07c-2.5-1-7.87,2.41-8.15,5.07c-0.06,0.58,0.01,1.3,0.31,1.79
		c2.9,4.81,6.32,9.2,10.81,12.65c0.43,0.33,1.56,0.49,1.81,0.23c1.96-2.17,4.24-4.19,4.64-7.51c-0.4-2.18-0.71-4.51-1.31-6.76
		C234.97,229.11,234.23,228.1,233.42,227.63z"/>
	<path class="st0" d="M221.6,198.51c1.26,0.96,2.49,1.97,3.72,2.98c1.11,0.92,2.25,1.01,3.42,0.19c2.15-1.51,4.35-2.95,6.37-4.61
		c0.72-0.59,0.97-1.73,1.26-2.29c-0.35-2.23-0.48-4.03-0.99-5.73c-0.15-0.49-1.46-1.06-2.09-0.92c-4.81,1.08-8.67,3.8-11.97,7.37
		C220.36,196.54,220.38,197.59,221.6,198.51z"/>
	<path class="st0" d="M393.59,153.4c1.48-2.62,2.17-5.79,2.73-8.8c1.59-8.58,1.23-17.17-0.03-25.8c-1.3-8.89-2.54-17.83-3.04-26.78
		c-0.34-6.06,1.13-12.22,0.89-18.3c-0.2-5.01-1.74-9.97-2.69-14.95c-0.6-0.1-1.19-0.2-1.79-0.3c-1.2,1.71-2.52,3.36-3.56,5.16
		c-0.92,1.6-1.4,3.44-2.31,5.05c-2.51,4.47-3.8,4.8-8.22,2.38c-1.41-0.77-2.82-1.55-4.22-2.35c-7.83-4.47-15.95-4.6-24.23-1.51
		c-7.82,2.91-15.63,5.84-23.36,9c-1.69,0.69-3.41,2.12-4.37,3.67c-2.53,4.09-1.12,17.48,3.08,21.02c8.95,7.55,8.87,21.43,2.31,29.95
		c-1.18,1.53-2.44,3.01-3.72,4.46l68.94,48.26c-0.04-0.92-0.09-1.84-0.14-2.76C389.43,171.46,388.67,162.12,393.59,153.4z
		 M345.04,93.82c-4.49,0-8.13-3.64-8.13-8.13c0-4.49,3.64-8.13,8.13-8.13c4.49,0,8.13,3.64,8.13,8.13
		C353.17,90.18,349.53,93.82,345.04,93.82z"/>
	<path class="st0" d="M242.27,195.25c2.68,1.81,5.9,2.82,8.95,4.2c1.46-0.69,2.71-1.23,3.9-1.86c3.65-1.93,3.68-2,0.37-4.36
		c-3.85-2.76-8.05-4.83-12.81-5.42c-0.68-0.08-2.03,0.53-2.07,0.93C240.35,191.08,240.24,193.87,242.27,195.25z"/>
	<path class="st0" d="M112.27,124.93c7.33-2.22,10.56-9.76,8.61-20.11c-3.9-16.16-12.15-29.76-24.28-41.05
		c-3.72-3.46-5.96-3.25-7,2.32c-2.93,15.72-4.3,31.34,1.58,46.72C94.71,122.1,104.06,127.42,112.27,124.93z"/>
	<path class="st0" d="M255.15,206.06c0.16,1.65,0.19,3.32,0.56,4.92c0.23,1,0.77,2.19,1.56,2.73c1.64,1.11,3.48,1.98,5.34,2.67
		c0.89,0.33,2.07,0.23,3.01-0.04c1.44-0.41,2.8-1.13,4.19-1.72c1.2-0.51,1.83-1.29,1.03-2.56c-2.34-3.72-4.65-7.47-7.12-11.11
		c-0.5-0.74-1.65-1.03-2-1.24C257.19,199.75,254.8,202.32,255.15,206.06z"/>
	<path class="st0" d="M268.71,220.31c-2.05,0.13-2.57,0.71-2.27,2.75c0.24,1.63,0.67,3.23,0.91,4.86c0.59,3.99,0.92,4.3,5.09,4.28
		c1.43-0.1,3.61,0.64,3.3-2.14c-0.28-2.59-0.75-5.17-1.33-7.71c-0.39-1.69-1.63-2.46-3.43-2.2
		C270.23,220.26,269.46,220.26,268.71,220.31z"/>
	<path class="st0" d="M158.29,104.29c0.56-5.44,3.94-8.3,8.84-10.24c12.32-4.9,22.1-13.06,29.58-24.01c2.6-3.8,4.3-7.97,4.8-12.5
		c1.26-11.3-2.62-14.85-13.78-13.09c-6.8,1.08-13.49,3.32-20.5,2.53c-8.49-0.95-15.53-4.6-20.27-11.89
		c-4.2-6.46-10.56-8.48-17.26-6.62c-8.32,2.3-16.75,4.81-24.16,9.63c-8.13,5.29-8.01,5.78-0.85,11.85
		c17.72,15.03,30.15,33.27,33.22,56.89c2.14,16.48-6.95,29.99-22.1,33c-17.71,3.52-19.66,6.85-18.59,25.56
		c0.55,9.72,1.38,17.59,2.87,25.67l74.53-55.9C167.44,130.66,157.48,112.16,158.29,104.29z M143.24,64.84
		c-4.49,0-8.13-3.64-8.13-8.13c0-4.49,3.64-8.13,8.13-8.13c4.49,0,8.13,3.64,8.13,8.13C151.37,61.2,147.73,64.84,143.24,64.84z"/>
	<path class="st0" d="M273.3,236.49c-1.71-0.19-3.44-0.19-5.16-0.28c-1.1,0.17-2.46,0.44-3.42,1.13c-1.73,1.24-3.23,2.81-4.95,4.07
		c-3.17,2.31-5.12,5.05-4.28,9.24c0.22,1.1-0.22,2.32-0.29,3.49c-0.08,1.34,0.35,2.33,1.92,2.33c2.52,0,5.07,0.17,7.57-0.05
		c3.73-0.33,6.54-2.25,8.48-5.51c1.96-3.3,2.5-6.97,3.01-10.66C276.54,237.84,275.76,236.77,273.3,236.49z"/>
	<polygon class="st1" points="156.27,307.98 156.27,436.67 238.08,436.67 238.08,412.55 183.67,412.55 183.67,307.98 	"/>
	<path class="st1" d="M326.7,307.98h-60.2v128.69h27.4v-45.73h32.8c27.78,0,43.22-19.1,43.22-41.48
		C369.92,326.89,354.67,307.98,326.7,307.98z M323.03,366.83H293.9V332.1h29.13c10.8,0,18.91,6.56,18.91,17.36
		C341.94,360.07,333.84,366.83,323.03,366.83z"/>
	<path class="st1" d="M143.24,48.59c-4.49,0-8.13,3.64-8.13,8.13c0,4.49,3.64,8.13,8.13,8.13c4.49,0,8.13-3.64,8.13-8.13
		C151.37,52.23,147.73,48.59,143.24,48.59z"/>
	<path class="st1" d="M345.04,77.57c-4.49,0-8.13,3.64-8.13,8.13c0,4.49,3.64,8.13,8.13,8.13c4.49,0,8.13-3.64,8.13-8.13
		C353.17,81.21,349.53,77.57,345.04,77.57z"/>
	<path class="st1" d="M280.58,246.75c0.29-0.64,1.39-1.43,1.97-1.33c3.55,0.65,6.93,1.69,9.39,4.69c1.97,2.39,3.99,4.79,6.32,6.81
		c2.39,2.07,4.27,1.41,5.43-1.54c4.09-10.43-2.18-26.28-17.95-25c-4.04,0.33-4.04,0.16-4.55-3.79c-0.11-0.81-0.45-1.6-0.59-2.41
		c-1.88-10.41-6.53-19.46-13.6-27.27c-3.49-3.86-7.31-7.33-11.92-9.88c-2.33-1.28-2.52-2.25-1.12-4.52
		c2.76-4.46,6.4-8.05,11.33-9.95c3.65-1.41,7.48-2.37,11.25-3.43c2.98-0.84,6.06-1.37,9-2.31c2.72-0.88,3.17-3.31,1.09-5.29
		c-0.94-0.89-2.03-1.71-3.19-2.27c-6.36-3.05-13.15-4.22-20.13-3.88c-5.59,0.27-10.71,1.86-14.48,6.48
		c-3.41,4.18-6.32,8.62-7.35,13.97c-0.83,4.32-1.58,8.37-7.42,7.71c-0.13-0.01-0.27,0.07-0.4,0.09c-2.24,0.31-3.85-0.91-3.91-3.17
		c-0.03-1.29,0.11-2.63,0.44-3.88c2.24-8.62-0.67-16.7-7.65-21.05c-3.29-2.05-5.71-1.79-8.34,0.98c-3.29,3.47-4.9,7.71-5.11,12.39
		c-0.28,6.22,1.42,11.85,5.58,16.68c2.97,3.44,3.02,6.72,0.53,10.62c-0.56,0.87-1.14,1.74-1.56,2.68c-0.86,1.96-2.33,2.26-4.25,1.9
		c-4.06-0.77-8.12-1.64-12.23-2.1c-7.85-0.89-15.42,0.09-21.68,5.4c-5.92,5.03-9.34,11.71-11.35,19.13c-0.8,2.97-1.27,5.95,0,8.94
		c0.85,2.01,2.56,2.89,4.46,1.88c1.35-0.72,2.64-1.79,3.59-3c8.43-10.69,19.16-16.42,33.01-15.69c4.02,0.21,3.99,0.43,4.85,4.3
		c0.95,4.27,2.05,8.64,3.95,12.55c5.9,12.07,15.55,20.23,27.89,25.3c4.74,1.95,4.74,1.94,4.43,7.21c0.6,3.03,0.8,6.21,1.88,9.06
		c3.16,8.35,8.78,14.23,18.03,15.43c3.72,0.48,7.32-0.53,9.85-3.71c1.54-1.94,1.43-4.02-0.4-5.72c-1.11-1.03-2.33-1.98-3.65-2.72
		c-5.11-2.84-8.51-6.84-9.54-12.79c-0.31-1.77,0.14-2.49,1.75-2.73c1.23-0.18,2.56-0.05,3.67-0.5c2.53-1.01,4.71-0.62,7.11,0.56
		c1.85,0.91,4.04,1.35,6.11,1.49c1.82,0.12,2.3-1.11,1.14-2.58c-1.03-1.29-2.41-2.31-3.35-3.65c-0.6-0.85-1.14-2.17-0.91-3.09
		C278.62,251.34,279.56,249.01,280.58,246.75z M274.41,222.35c0.58,2.54,1.05,5.12,1.33,7.71c0.31,2.78-1.87,2.05-3.3,2.14
		c-4.17,0.02-4.5-0.29-5.09-4.28c-0.24-1.63-0.68-3.23-0.91-4.86c-0.3-2.04,0.23-2.62,2.27-2.75c0.75-0.05,1.52-0.05,2.26-0.16
		C272.77,219.89,274.02,220.66,274.41,222.35z M263.72,200.95c2.47,3.64,4.78,7.38,7.12,11.11c0.8,1.28,0.18,2.05-1.03,2.56
		c-1.39,0.59-2.74,1.31-4.19,1.72c-0.94,0.27-2.12,0.36-3.01,0.04c-1.86-0.69-3.71-1.56-5.34-2.67c-0.79-0.54-1.33-1.73-1.56-2.73
		c-0.37-1.6-0.41-3.27-0.56-4.92c-0.36-3.74,2.03-6.31,6.57-6.35C262.08,199.91,263.22,200.21,263.72,200.95z M240.61,188.73
		c0.04-0.4,1.4-1.01,2.07-0.93c4.76,0.6,8.96,2.66,12.81,5.42c3.3,2.37,3.27,2.44-0.37,4.36c-1.19,0.63-2.44,1.16-3.9,1.86
		c-3.04-1.38-6.27-2.39-8.95-4.2C240.24,193.87,240.35,191.08,240.61,188.73z M239.78,199.75c0.63,0.18,1.1,0.29,1.54,0.46
		c1.16,0.45,2.31,0.93,3.46,1.41c6.86,2.83,4.87,1.86,6.75,8.35c1,3.45-0.14,5.44-2.95,7.22c-2.97,1.89-5.76,4.07-8.6,6.15
		c-1.48,1.09-2.98,1.3-4.63,0.42c-1.46-0.78-2.92-1.59-4.46-2.2c-1.74-0.69-2.41-1.96-2.46-3.7c-0.08-2.63-0.32-5.27-0.12-7.87
		c0.1-1.25,0.75-2.78,1.67-3.57c2.46-2.1,5.2-3.88,7.86-5.74C238.44,200.25,239.18,200.03,239.78,199.75z M223.19,163.01
		c1.29,0,2.34,1.05,2.34,2.34c0,1.29-1.05,2.34-2.34,2.34s-2.34-1.05-2.34-2.34C220.85,164.06,221.9,163.01,223.19,163.01z
		 M221.32,195.51c3.3-3.57,7.16-6.29,11.97-7.37c0.63-0.14,1.94,0.42,2.09,0.92c0.51,1.7,0.64,3.5,0.99,5.73
		c-0.29,0.55-0.55,1.7-1.26,2.29c-2.02,1.66-4.22,3.11-6.37,4.61c-1.17,0.82-2.31,0.73-3.42-0.19c-1.22-1.01-2.45-2.02-3.72-2.98
		C220.38,197.59,220.36,196.54,221.32,195.51z M215.35,169.66c-1.29,0-2.34-1.05-2.34-2.34c0-1.29,1.05-2.34,2.34-2.34
		s2.34,1.05,2.34,2.34C217.68,168.61,216.64,169.66,215.35,169.66z M215.51,220.87c-0.48-2.35-1.24-4.77-1.07-7.1
		c0.24-3.39,1.03-6.78,1.92-10.07c0.52-1.92,1.46-1.98,3.08-0.82c3.41,2.45,5.39,5.5,4.41,9.21c0.02,7.53,0.7,6.24-6.15,9.66
		C216.55,222.33,215.75,222.06,215.51,220.87z M231.89,244.29c-0.24,0.27-1.37,0.11-1.81-0.23c-4.49-3.45-7.91-7.84-10.81-12.65
		c-0.29-0.49-0.37-1.2-0.31-1.79c0.28-2.67,5.65-6.07,8.15-5.07c2.17,0.86,4.29,1.89,6.3,3.07c0.8,0.47,1.55,1.48,1.79,2.39
		c0.61,2.25,0.91,4.58,1.31,6.76C236.13,240.1,233.85,242.12,231.89,244.29z M250.41,252.62c-0.34,1.41-1.06,2.37-2.83,1.51
		c-2.86-1.37-5.81-2.54-8.68-3.88c-1.74-0.82-2.34-1.98-1.41-4.01c2.25-4.94,1.53-4.73,6.93-2.89c1.24,0.42,2.44,0.96,3.7,1.33
		c1.95,0.57,2.84,1.84,2.78,4.06C250.76,249.88,250.73,251.29,250.41,252.62z M249.71,240.37c-2.23-0.72-4.45-1.47-6.65-2.29
		c-0.62-0.23-1.26-0.64-1.67-1.14c-1.9-2.35-0.94-9.15,1.47-10.95c2.98-2.23,5.98-4.44,8.93-6.72c1.58-1.22,3.17-1.58,4.98-0.55
		c0.42,0.24,0.88,0.4,1.33,0.56c2.52,0.91,4.21,2.48,4.49,5.33c0.2,1.99,0.59,3.95,0.99,6.51c-0.45,0.72-0.91,2-1.81,2.78
		c-2.29,1.98-4.8,3.71-7.18,5.59C253.09,240.69,251.46,240.94,249.71,240.37z M276.2,240.25c-0.51,3.69-1.05,7.36-3.01,10.66
		c-1.94,3.26-4.75,5.19-8.48,5.51c-2.51,0.22-5.05,0.05-7.57,0.05c-1.57,0-2-1-1.92-2.33c0.07-1.17,0.51-2.39,0.29-3.49
		c-0.84-4.19,1.11-6.93,4.28-9.24c1.72-1.26,3.22-2.82,4.95-4.07c0.96-0.69,2.32-0.96,3.42-1.13c1.72,0.09,3.45,0.09,5.16,0.28
		C275.76,236.77,276.54,237.84,276.2,240.25z"/>
	<path class="st1" d="M324.79,130.86c6.55-8.52,6.63-22.4-2.31-29.95c-4.2-3.55-5.61-16.93-3.08-21.02
		c0.96-1.55,2.67-2.98,4.37-3.67c7.72-3.16,15.54-6.09,23.36-9c8.28-3.09,16.4-2.96,24.23,1.51c1.4,0.8,2.81,1.57,4.22,2.35
		c4.42,2.42,5.71,2.09,8.22-2.38c0.9-1.61,1.38-3.46,2.31-5.05c1.04-1.8,2.36-3.45,3.56-5.16c0.6,0.1,1.19,0.2,1.79,0.3
		c0.95,4.98,2.49,9.94,2.69,14.95c0.25,6.08-1.23,12.23-0.89,18.3c0.5,8.96,1.74,17.89,3.04,26.78c1.26,8.63,1.62,17.22,0.03,25.8
		c-0.56,3.01-1.26,6.18-2.73,8.8c-4.91,8.72-4.16,18.06-3.71,27.42c0.04,0.92,0.09,1.84,0.14,2.76l16.23,11.36
		c-0.23-5.17-4.19-18.47-4.38-21.21c-0.42-5.82,0.85-11.38,3.09-16.56c6.99-16.16,5.26-32.59,1.97-49.08
		c-1.42-7.1-1.86-13.99-0.46-21.25c1.78-9.21,0-18.46-2.33-27.47c-1.35-5.24-2.83-10.49-4.86-15.49c-2.12-5.22-8.84-8.96-13.65-2.16
		c-2.43,3.43-5.29,6.64-7.19,10.34c-1.67,3.24-3.68,3.66-6.86,3.13c-5.55-0.91-11.15-1.82-16.76-2.03
		c-6.96-0.26-13.08,3.01-19.39,5.55c-6.24,2.52-12.67,4.67-19.17,6.39c-4.51,1.19-6.66,3.54-8.02,8c-2,6.51-2.96,12.95-2.06,19.65
		c0.87,6.49,3.19,12.39,7.81,17.2c3.65,3.8,4.59,7.66,1.59,12.01c-1.48,2.13-3.15,4.13-4.89,6.08l10.4,7.28
		C322.35,133.86,323.61,132.39,324.79,130.86z"/>
	<path class="st1" d="M97.22,165.4c-1.06-18.71,0.88-22.04,18.59-25.56c15.16-3.01,24.25-16.53,22.1-33
		c-3.07-23.62-15.5-41.86-33.22-56.89c-7.16-6.07-7.28-6.56,0.85-11.85c7.42-4.82,15.85-7.33,24.16-9.63
		c6.7-1.85,13.06,0.16,17.26,6.62c4.74,7.3,11.78,10.94,20.27,11.89c7.01,0.79,13.69-1.45,20.5-2.53
		c11.16-1.77,15.04,1.79,13.78,13.09c-0.51,4.53-2.21,8.69-4.8,12.5c-7.48,10.95-17.26,19.11-29.58,24.01
		c-4.9,1.95-8.28,4.81-8.84,10.24c-0.81,7.86,9.15,26.37,16.33,30.89l11.96-8.97c-0.13-0.28-0.28-0.57-0.44-0.86
		c-1.8-3.1-4.03-5.95-6-8.96c-3.08-4.71-3.45-8.33,2.57-11.61c8.2-4.47,15.2-10.78,21.47-17.71c8.98-9.92,14.8-21.17,13.07-35.08
		c-2.25-18.08-9.34-29.12-30.09-23.98c-3.49,0.86-7.15,1.08-10.63,1.98c-8.03,2.06-13.91-0.02-18.15-7.55
		c-4.17-7.41-11.48-11.27-19.57-10.77c-14.74,0.9-28.99,4.25-41.88,12.27c-17.1,10.64-22.22,27.47-24.8,45.82
		c-3.06,21.79-3.75,43.15,10.55,62c1.78,2.35,1.38,5.07,0.86,7.8c-4.18,21.77-3.02,42.66,1.36,62.92l15.18-11.39
		C98.59,183,97.77,175.12,97.22,165.4z M91.17,112.82c-5.87-15.39-4.5-31.01-1.58-46.72c1.04-5.57,3.28-5.79,7-2.32
		c12.13,11.29,20.38,24.88,24.28,41.05c1.96,10.35-1.27,17.88-8.61,20.11C104.06,127.42,94.71,122.1,91.17,112.82z"/>
	<path class="st2" d="M397.19,460.79h-281.2c-4.1,0-7.78-1.88-10.21-4.81c-1.9-2.29-3.04-5.24-3.04-8.44V211.86l142.86-107.15
		l142.49,99.74v0.02v78.72c0,2.21,0.79,4.24,2.1,5.81c1.67,2.01,4.19,3.29,7.01,3.29c5.03,0,9.11-4.08,9.11-9.11V195v-0.02
		l-0.06-0.04l-16.23-11.36l-68.94-48.26l-10.4-7.28l-65.45-45.81l-58.65,43.98l-11.96,8.97l-74.53,55.9l-15.18,11.39l-0.39,245.06
		c0,7.6,2.7,14.57,7.2,20.01c5.78,6.99,14.51,11.46,24.27,11.46h281.2c5.03,0,9.11-4.08,9.11-9.11c0-2.19-0.77-4.19-2.05-5.76
		C402.57,462.09,400.03,460.79,397.19,460.79z"/>
</g>
</svg>
