<?xml version="1.0" encoding="utf-8"?>
<!-- Generator: Adobe Illustrator 25.2.3, SVG Export Plug-In . SVG Version: 6.00 Build 0)  -->
<svg version="1.1" id="little-pets" xmlns="http://www.w3.org/2000/svg" xmlns:xlink="http://www.w3.org/1999/xlink" x="0px"
	 y="0px" viewBox="0 0 1024 768" style="enable-background:new 0 0 1024 768;" xml:space="preserve">
<style type="text/css">
	.st0{fill:none;}
	.st1{fill:#0891B2;}
	.st2{fill:#22D3EE;}
</style>
<g>
	<path class="st0" d="M204.35,292.22c0-1.52-1.23-2.75-2.75-2.75c-1.52,0-2.75,1.23-2.75,2.75c0,1.52,1.23,2.75,2.75,2.75
		C203.11,294.97,204.35,293.74,204.35,292.22z"/>
	<path class="st0" d="M258.35,367.3c-0.47-3.02-0.93-5.33-1.16-7.67c-0.34-3.35-2.31-5.2-5.28-6.28c-0.53-0.19-1.08-0.38-1.57-0.66
		c-2.12-1.22-3.99-0.8-5.85,0.64c-3.47,2.68-6.99,5.28-10.5,7.91c-2.84,2.12-3.96,10.11-1.73,12.88c0.48,0.6,1.24,1.08,1.97,1.35
		c2.58,0.96,5.2,1.85,7.82,2.7c2.06,0.66,3.98,0.37,5.73-1.02c2.8-2.21,5.76-4.25,8.45-6.58
		C257.28,369.66,257.82,368.15,258.35,367.3z"/>
	<path class="st0" d="M216.85,342.42c-0.23,3.07,0.05,6.18,0.14,9.27c0.06,2.04,0.85,3.54,2.9,4.35c1.81,0.72,3.52,1.67,5.24,2.58
		c1.95,1.04,3.71,0.79,5.45-0.49c3.34-2.46,6.62-5.02,10.12-7.24c3.3-2.09,4.64-4.44,3.47-8.49c-2.21-7.63,0.13-6.49-7.94-9.82
		c-1.35-0.56-2.7-1.12-4.07-1.66c-0.52-0.2-1.08-0.33-1.82-0.54c-0.7,0.33-1.57,0.59-2.28,1.09c-3.13,2.19-6.35,4.29-9.24,6.76
		C217.73,339.15,216.97,340.95,216.85,342.42z"/>
	<path class="st0" d="M210.82,292.65c1.52,0,2.75-1.23,2.75-2.75c0-1.52-1.23-2.75-2.75-2.75c-1.52,0-2.75,1.23-2.75,2.75
		C208.07,291.42,209.3,292.65,210.82,292.65z"/>
	<path class="st0" d="M240.14,383.24c-1.48-0.43-2.89-1.07-4.35-1.57c-6.35-2.16-5.51-2.41-8.15,3.4c-1.09,2.39-0.39,3.76,1.66,4.72
		c3.38,1.58,6.85,2.95,10.21,4.57c2.09,1,2.94-0.12,3.33-1.78c0.38-1.57,0.41-3.22,0.56-4.57
		C243.48,385.41,242.43,383.91,240.14,383.24z"/>
	<path class="st0" d="M211.61,344.91c1.16-4.36-1.18-7.96-5.19-10.84c-1.91-1.37-3.02-1.3-3.63,0.96
		c-1.04,3.88-1.97,7.86-2.26,11.85c-0.2,2.74,0.7,5.58,1.26,8.35c0.28,1.4,1.22,1.72,2.58,1.04
		C212.43,352.25,211.63,353.76,211.61,344.91z"/>
	<path class="st0" d="M222.87,363.18c-2.36-1.39-4.86-2.6-7.41-3.62c-2.95-1.17-9.26,2.83-9.59,5.97c-0.07,0.69,0.02,1.53,0.36,2.1
		c3.41,5.66,7.44,10.82,12.72,14.88c0.51,0.39,1.84,0.58,2.12,0.27c2.3-2.56,4.98-4.93,5.46-8.84c-0.48-2.57-0.83-5.31-1.55-7.96
		C224.69,364.92,223.81,363.74,222.87,363.18z"/>
	<path class="st0" d="M208.95,328.92c1.49,1.13,2.93,2.32,4.37,3.51c1.3,1.08,2.65,1.18,4.02,0.22c2.53-1.77,5.12-3.47,7.49-5.43
		c0.84-0.69,1.15-2.04,1.49-2.69c-0.41-2.62-0.57-4.75-1.17-6.74c-0.17-0.58-1.72-1.24-2.46-1.08c-5.66,1.27-10.21,4.47-14.09,8.67
		C207.5,326.6,207.52,327.83,208.95,328.92z"/>
	<path class="st0" d="M411.32,275.84c1.74-3.08,2.56-6.81,3.22-10.35c1.88-10.09,1.45-20.2-0.03-30.35
		c-1.53-10.46-2.99-20.97-3.57-31.51c-0.4-7.13,1.33-14.38,1.04-21.53c-0.24-5.9-2.05-11.73-3.17-17.59
		c-0.7-0.12-1.4-0.23-2.11-0.35c-1.41,2.02-2.96,3.95-4.19,6.07c-1.08,1.88-1.65,4.05-2.71,5.94c-2.96,5.26-4.47,5.65-9.67,2.8
		c-1.66-0.91-3.32-1.82-4.97-2.76c-9.22-5.26-18.77-5.41-28.51-1.78c-9.2,3.43-18.4,6.87-27.48,10.59c-1.99,0.82-4.01,2.5-5.14,4.32
		c-2.98,4.81-1.32,20.57,3.62,24.74c10.53,8.88,10.43,25.22,2.72,35.24c-1.39,1.8-2.87,3.54-4.37,5.25l81.12,56.78
		c-0.05-1.08-0.11-2.16-0.16-3.24C406.43,297.09,405.54,286.09,411.32,275.84z M354.2,205.73c-5.28,0-9.56-4.28-9.56-9.56
		c0-5.28,4.28-9.56,9.56-9.56c5.28,0,9.56,4.28,9.56,9.56C363.76,201.45,359.48,205.73,354.2,205.73z"/>
	<path class="st0" d="M233.28,325.07c3.16,2.13,6.95,3.32,10.53,4.94c1.72-0.82,3.19-1.45,4.59-2.19c4.29-2.27,4.33-2.35,0.44-5.13
		c-4.53-3.25-9.47-5.68-15.08-6.38c-0.79-0.1-2.39,0.62-2.44,1.09C231.01,320.17,230.89,323.46,233.28,325.07z"/>
	<path class="st0" d="M80.31,242.34c8.63-2.62,12.43-11.49,10.13-23.66c-4.58-19.02-14.29-35.01-28.57-48.3
		c-4.38-4.08-7.02-3.82-8.24,2.73c-3.44,18.5-5.06,36.88,1.85,54.98C59.65,239.01,70.65,245.27,80.31,242.34z"/>
	<path class="st0" d="M248.43,337.8c0.18,1.94,0.22,3.91,0.66,5.79c0.27,1.17,0.91,2.58,1.84,3.21c1.93,1.31,4.1,2.33,6.29,3.14
		c1.04,0.39,2.43,0.27,3.54-0.04c1.7-0.48,3.29-1.33,4.93-2.03c1.41-0.6,2.15-1.52,1.21-3.02c-2.75-4.38-5.47-8.79-8.38-13.07
		c-0.59-0.87-1.94-1.21-2.35-1.46C250.83,330.38,248.01,333.4,248.43,337.8z"/>
	<path class="st0" d="M264.39,354.57c-2.41,0.16-3.02,0.84-2.68,3.24c0.28,1.92,0.79,3.8,1.07,5.72c0.7,4.7,1.08,5.06,5.99,5.04
		c1.68-0.11,4.24,0.76,3.89-2.52c-0.33-3.05-0.88-6.08-1.57-9.07c-0.46-1.99-1.92-2.9-4.04-2.59
		C266.17,354.51,265.27,354.51,264.39,354.57z"/>
	<path class="st0" d="M134.45,218.06c0.66-6.4,4.64-9.76,10.4-12.05c14.5-5.76,26.01-15.37,34.8-28.25
		c3.06-4.48,5.06-9.38,5.65-14.7c1.48-13.29-3.09-17.48-16.21-15.4c-8,1.27-15.87,3.91-24.12,2.98
		c-9.99-1.12-18.28-5.41-23.86-13.99c-4.94-7.6-12.43-9.97-20.31-7.79c-9.79,2.71-19.7,5.66-28.43,11.33
		c-9.57,6.22-9.43,6.8-1,13.94c20.85,17.68,35.48,39.15,39.09,66.94c2.52,19.39-8.17,35.29-26.01,38.84
		c-20.84,4.14-23.13,8.06-21.88,30.07c0.65,11.43,1.62,20.7,3.38,30.21l87.69-65.77C145.22,249.08,133.5,227.31,134.45,218.06z
		 M116.75,171.63c-5.28,0-9.56-4.28-9.56-9.56c0-5.28,4.28-9.56,9.56-9.56c5.28,0,9.56,4.28,9.56,9.56
		C126.31,167.35,122.03,171.63,116.75,171.63z"/>
	<path class="st0" d="M542.47,522.36c-14.47,0-20.69,10.8-21.79,19.6h43.59C563.72,533.53,557.86,522.36,542.47,522.36z"/>
	<path class="st0" d="M704.73,495.25h-27.65v32.96h27.65c10.26,0,17.95-6.41,17.95-16.48C722.68,501.48,714.99,495.25,704.73,495.25
		z"/>
	<path class="st0" d="M801.79,522.36c-14.47,0-20.69,10.8-21.79,19.6h43.59C823.04,533.53,817.18,522.36,801.79,522.36z"/>
	<path class="st0" d="M269.79,373.61c-2.01-0.23-4.05-0.23-6.07-0.33c-1.29,0.2-2.89,0.52-4.02,1.33c-2.04,1.46-3.79,3.31-5.82,4.79
		c-3.73,2.72-6.03,5.94-5.04,10.87c0.26,1.29-0.26,2.73-0.34,4.1c-0.09,1.57,0.42,2.74,2.26,2.75c2.97,0,5.96,0.2,8.91-0.06
		c4.39-0.39,7.69-2.65,9.98-6.49c2.31-3.88,2.94-8.2,3.55-12.54C273.6,375.19,272.68,373.94,269.79,373.61z"/>
	<polygon class="st1" points="190.67,472.36 190.67,594.51 268.32,594.51 268.32,571.62 216.68,571.62 216.68,472.36 	"/>
	<path class="st1" d="M297.44,468.88c-7.51,0-13.92,6.04-13.92,13.73c0,7.69,6.41,13.92,13.92,13.92c7.69,0,13.92-6.23,13.92-13.92
		C311.36,474.93,305.13,468.88,297.44,468.88z"/>
	<rect x="285.9" y="506.06" class="st1" width="23.26" height="88.45"/>
	<path class="st1" d="M361.9,596.71c9.71,0,15.93-2.56,19.41-5.68l-4.94-17.58c-1.28,1.28-4.58,2.56-8.06,2.56
		c-5.13,0-8.06-4.21-8.06-9.71v-39.92h17.95v-20.33h-17.95v-24.17h-23.44v24.17h-14.65v20.33h14.65v46.15
		C336.82,588.29,345.61,596.71,361.9,596.71z"/>
	<path class="st1" d="M430.21,576.02c-5.13,0-8.06-4.21-8.06-9.71v-39.92h17.95v-20.33h-17.95v-24.17h-23.44v24.17h-14.65v20.33
		h14.65v46.15c0,15.75,8.79,24.17,25.09,24.17c9.71,0,15.93-2.56,19.41-5.68l-4.94-17.58C436.99,574.73,433.69,576.02,430.21,576.02
		z"/>
	<rect x="456.04" y="472.36" class="st1" width="23.26" height="122.15"/>
	<path class="st1" d="M542.47,503.86c-26.92,0-45.78,20.69-45.78,46.33c0,28.39,20.33,46.52,47.25,46.52
		c13.73,0,27.65-4.21,36.44-12.27l-10.26-15.02c-5.68,5.49-16.12,8.79-23.62,8.79c-15.02,0-23.99-9.34-25.46-20.51h65.74v-5.13
		C586.79,523.64,568.85,503.86,542.47,503.86z M520.68,541.95c1.1-8.79,7.33-19.6,21.79-19.6c15.38,0,21.24,11.17,21.79,19.6H520.68
		z"/>
	<path class="st1" d="M708.21,472.36h-57.14v122.15h26v-43.4h31.13c26.37,0,41.02-18.13,41.02-39.37
		C749.23,490.31,734.77,472.36,708.21,472.36z M704.73,528.22h-27.65v-32.96h27.65c10.26,0,17.95,6.23,17.95,16.48
		C722.68,521.81,714.99,528.22,704.73,528.22z"/>
	<path class="st1" d="M801.79,503.86c-26.92,0-45.78,20.69-45.78,46.33c0,28.39,20.33,46.52,47.25,46.52
		c13.73,0,27.65-4.21,36.44-12.27l-10.26-15.02c-5.68,5.49-16.12,8.79-23.62,8.79c-15.02,0-23.99-9.34-25.46-20.51h65.74v-5.13
		C846.11,523.64,828.16,503.86,801.79,503.86z M780,541.95c1.1-8.79,7.33-19.6,21.79-19.6c15.38,0,21.24,11.17,21.79,19.6H780z"/>
	<path class="st1" d="M899.04,576.02c-5.13,0-8.06-4.21-8.06-9.71v-39.92h17.95v-20.33h-17.95v-24.17h-23.44v24.17h-14.65v20.33
		h14.65v46.15c0,15.75,8.79,24.17,25.09,24.17c9.71,0,15.93-2.56,19.41-5.68l-4.94-17.58C905.81,574.73,902.52,576.02,899.04,576.02
		z"/>
	<path class="st1" d="M942.62,530.42c0-4.94,5.49-8.79,13.92-8.79c10.8,0,20.88,4.58,26.19,10.26l9.34-15.93
		c-8.79-6.96-20.69-12.09-35.71-12.09c-23.26,0-36.26,13-36.26,27.84c0,34.79,52.56,22.89,52.56,37.54c0,5.49-4.76,9.52-14.83,9.52
		c-10.99,0-24.17-6.04-30.58-12.09l-10.07,16.3c9.34,8.61,24.17,13.73,39.56,13.73c24.54,0,38.27-12.27,38.27-28.39
		C995,532.61,942.62,543.6,942.62,530.42z"/>
	<path class="st1" d="M116.75,152.51c-5.28,0-9.56,4.28-9.56,9.56c0,5.28,4.28,9.56,9.56,9.56c5.28,0,9.56-4.28,9.56-9.56
		C126.31,156.79,122.03,152.51,116.75,152.51z"/>
	<path class="st1" d="M354.2,186.61c-5.28,0-9.56,4.28-9.56,9.56c0,5.28,4.28,9.56,9.56,9.56c5.28,0,9.56-4.28,9.56-9.56
		C363.76,190.89,359.48,186.61,354.2,186.61z"/>
	<path class="st1" d="M278.35,385.67c0.34-0.75,1.64-1.68,2.32-1.56c4.18,0.76,8.15,1.99,11.05,5.51c2.32,2.81,4.7,5.64,7.44,8.01
		c2.81,2.44,5.02,1.66,6.39-1.81c4.82-12.28-2.56-30.93-21.12-29.42c-4.76,0.39-4.75,0.19-5.36-4.47c-0.12-0.96-0.53-1.88-0.7-2.83
		c-2.22-12.25-7.69-22.89-16-32.09c-4.1-4.54-8.6-8.63-14.02-11.62c-2.74-1.51-2.97-2.65-1.32-5.32c3.25-5.25,7.53-9.48,13.33-11.71
		c4.3-1.66,8.8-2.79,13.24-4.04c3.51-0.98,7.12-1.61,10.59-2.72c3.2-1.03,3.73-3.89,1.29-6.22c-1.1-1.05-2.38-2.01-3.75-2.67
		c-7.48-3.59-15.47-4.96-23.69-4.57c-6.58,0.32-12.6,2.19-17.04,7.63c-4.01,4.91-7.44,10.15-8.65,16.44
		c-0.98,5.09-1.85,9.85-8.73,9.07c-0.15-0.02-0.31,0.09-0.47,0.11c-2.64,0.37-4.53-1.07-4.6-3.73c-0.04-1.52,0.13-3.1,0.52-4.57
		c2.64-10.14-0.79-19.65-9.01-24.77c-3.87-2.41-6.72-2.1-9.81,1.15c-3.87,4.08-5.77,9.07-6.01,14.58
		c-0.33,7.32,1.67,13.94,6.57,19.62c3.49,4.05,3.56,7.91,0.62,12.49c-0.66,1.03-1.35,2.05-1.83,3.16c-1.02,2.31-2.74,2.66-5,2.23
		c-4.78-0.91-9.56-1.92-14.39-2.47c-9.24-1.05-18.15,0.1-25.51,6.35c-6.96,5.91-10.99,13.77-13.36,22.51
		c-0.94,3.49-1.49,7.01,0,10.52c1,2.36,3.01,3.4,5.25,2.22c1.59-0.84,3.11-2.11,4.23-3.52c9.92-12.58,22.55-19.32,38.84-18.46
		c4.73,0.25,4.7,0.51,5.71,5.06c1.12,5.03,2.41,10.17,4.65,14.76c6.94,14.2,18.3,23.8,32.82,29.77c5.58,2.3,5.58,2.29,5.21,8.48
		c0.71,3.56,0.94,7.31,2.21,10.66c3.72,9.83,10.33,16.75,21.21,18.16c4.38,0.57,8.61-0.62,11.59-4.37c1.81-2.28,1.68-4.73-0.47-6.73
		c-1.3-1.21-2.75-2.33-4.29-3.19c-6.02-3.35-10.02-8.05-11.22-15.04c-0.36-2.08,0.16-2.94,2.05-3.22c1.44-0.21,3.01-0.06,4.32-0.59
		c2.98-1.19,5.54-0.73,8.37,0.66c2.17,1.07,4.75,1.59,7.19,1.75c2.15,0.14,2.7-1.31,1.34-3.03c-1.21-1.52-2.83-2.72-3.94-4.3
		c-0.7-1-1.34-2.56-1.07-3.63C276.05,391.07,277.15,388.33,278.35,385.67z M271.09,356.97c0.69,2.99,1.23,6.02,1.57,9.07
		c0.36,3.28-2.2,2.41-3.89,2.52c-4.91,0.02-5.29-0.34-5.99-5.04c-0.28-1.92-0.79-3.8-1.07-5.72c-0.35-2.4,0.27-3.08,2.68-3.24
		c0.89-0.06,1.78-0.06,2.66-0.19C269.17,354.07,270.63,354.98,271.09,356.97z M258.52,331.78c2.91,4.28,5.62,8.69,8.38,13.07
		c0.94,1.5,0.21,2.42-1.21,3.02c-1.64,0.7-3.23,1.55-4.93,2.03c-1.11,0.31-2.5,0.43-3.54,0.04c-2.19-0.81-4.36-1.83-6.29-3.14
		c-0.93-0.63-1.56-2.04-1.84-3.21c-0.44-1.88-0.48-3.85-0.66-5.79c-0.42-4.4,2.39-7.42,7.73-7.47
		C256.58,330.57,257.93,330.92,258.52,331.78z M231.32,317.4c0.05-0.47,1.65-1.19,2.44-1.09c5.6,0.7,10.54,3.13,15.08,6.38
		c3.89,2.79,3.85,2.87-0.44,5.13c-1.4,0.74-2.87,1.37-4.59,2.19c-3.58-1.62-7.37-2.81-10.53-4.94
		C230.89,323.46,231.01,320.17,231.32,317.4z M230.34,330.37c0.74,0.22,1.29,0.34,1.82,0.54c1.36,0.53,2.71,1.1,4.07,1.66
		c8.07,3.33,5.73,2.19,7.94,9.82c1.18,4.06-0.17,6.4-3.47,8.49c-3.5,2.22-6.77,4.79-10.12,7.24c-1.74,1.28-3.5,1.53-5.45,0.49
		c-1.72-0.92-3.44-1.87-5.24-2.58c-2.05-0.81-2.84-2.31-2.9-4.35c-0.09-3.09-0.38-6.2-0.14-9.27c0.11-1.47,0.88-3.27,1.97-4.2
		c2.9-2.47,6.11-4.57,9.24-6.76C228.77,330.97,229.64,330.7,230.34,330.37z M210.82,287.15c1.52,0,2.75,1.23,2.75,2.75
		c0,1.52-1.23,2.75-2.75,2.75c-1.52,0-2.75-1.23-2.75-2.75C208.07,288.38,209.3,287.15,210.82,287.15z M208.62,325.38
		c3.88-4.2,8.43-7.4,14.09-8.67c0.74-0.17,2.28,0.5,2.46,1.08c0.6,1.99,0.76,4.12,1.17,6.74c-0.34,0.65-0.65,2-1.49,2.69
		c-2.38,1.95-4.97,3.66-7.49,5.43c-1.38,0.96-2.72,0.86-4.02-0.22c-1.44-1.19-2.89-2.38-4.37-3.51
		C207.52,327.83,207.5,326.6,208.62,325.38z M201.6,294.97c-1.52,0-2.75-1.23-2.75-2.75c0-1.52,1.23-2.75,2.75-2.75
		c1.52,0,2.75,1.23,2.75,2.75C204.35,293.74,203.11,294.97,201.6,294.97z M201.79,355.23c-0.56-2.77-1.45-5.61-1.26-8.35
		c0.29-3.99,1.22-7.97,2.26-11.85c0.61-2.25,1.72-2.33,3.63-0.96c4.01,2.88,6.35,6.47,5.19,10.84c0.02,8.86,0.82,7.35-7.24,11.36
		C203.01,356.95,202.08,356.63,201.79,355.23z M221.07,382.79c-0.28,0.32-1.61,0.13-2.12-0.27c-5.28-4.06-9.3-9.22-12.72-14.88
		c-0.34-0.57-0.43-1.41-0.36-2.1c0.33-3.14,6.64-7.14,9.59-5.97c2.55,1.02,5.05,2.22,7.41,3.62c0.95,0.56,1.82,1.74,2.11,2.81
		c0.71,2.65,1.07,5.39,1.55,7.96C226.05,377.86,223.37,380.23,221.07,382.79z M242.85,392.59c-0.4,1.66-1.24,2.78-3.33,1.78
		c-3.36-1.61-6.84-2.98-10.21-4.57c-2.05-0.96-2.75-2.33-1.66-4.72c2.64-5.81,1.8-5.56,8.15-3.4c1.46,0.5,2.87,1.13,4.35,1.57
		c2.29,0.67,3.34,2.17,3.27,4.78C243.26,389.36,243.23,391.02,242.85,392.59z M242.03,378.18c-2.62-0.84-5.24-1.73-7.82-2.7
		c-0.73-0.27-1.49-0.75-1.97-1.35c-2.23-2.77-1.11-10.76,1.73-12.88c3.51-2.62,7.04-5.23,10.5-7.91c1.86-1.44,3.73-1.86,5.85-0.64
		c0.49,0.28,1.03,0.47,1.57,0.66c2.97,1.08,4.95,2.92,5.28,6.28c0.23,2.34,0.7,4.65,1.16,7.67c-0.53,0.84-1.07,2.36-2.13,3.27
		c-2.7,2.33-5.65,4.37-8.45,6.58C246,378.54,244.09,378.84,242.03,378.18z M273.2,378.03c-0.6,4.34-1.24,8.66-3.55,12.54
		c-2.28,3.84-5.58,6.1-9.98,6.49c-2.95,0.26-5.94,0.06-8.91,0.06c-1.85,0-2.35-1.17-2.26-2.75c0.08-1.38,0.6-2.81,0.34-4.1
		c-0.99-4.93,1.31-8.15,5.04-10.87c2.03-1.48,3.79-3.32,5.82-4.79c1.13-0.81,2.73-1.13,4.02-1.33c2.02,0.1,4.06,0.1,6.07,0.33
		C272.68,373.94,273.6,375.19,273.2,378.03z"/>
	<path class="st1" d="M330.37,249.31c7.71-10.02,7.81-26.36-2.72-35.24c-4.95-4.17-6.61-19.93-3.62-24.74
		c1.13-1.83,3.15-3.51,5.14-4.32c9.08-3.72,18.28-7.16,27.48-10.59c9.74-3.63,19.3-3.48,28.51,1.78c1.64,0.94,3.3,1.85,4.97,2.76
		c5.2,2.85,6.72,2.46,9.67-2.8c1.06-1.89,1.63-4.07,2.71-5.94c1.23-2.12,2.78-4.06,4.19-6.07c0.7,0.12,1.4,0.23,2.11,0.35
		c1.12,5.86,2.93,11.69,3.17,17.59c0.29,7.15-1.44,14.4-1.04,21.53c0.59,10.54,2.05,21.05,3.57,31.51
		c1.48,10.15,1.91,20.26,0.03,30.35c-0.66,3.54-1.48,7.27-3.22,10.35c-5.78,10.26-4.89,21.25-4.36,32.26
		c0.05,1.08,0.11,2.16,0.16,3.24l19.09,13.37c-0.26-6.09-4.92-21.73-5.16-24.96c-0.49-6.85,1-13.4,3.64-19.49
		c8.23-19.02,6.19-38.34,2.32-57.74c-1.67-8.35-2.19-16.46-0.54-25c2.1-10.84,0-21.73-2.74-32.33c-1.59-6.16-3.34-12.34-5.72-18.22
		c-2.49-6.14-10.4-10.55-16.06-2.55c-2.86,4.04-6.22,7.81-8.46,12.16c-1.96,3.81-4.33,4.3-8.08,3.69
		c-6.53-1.07-13.12-2.14-19.72-2.39c-8.19-0.31-15.39,3.54-22.81,6.54c-7.34,2.96-14.91,5.5-22.56,7.52
		c-5.31,1.4-7.83,4.17-9.44,9.41c-2.35,7.66-3.49,15.24-2.42,23.12c1.03,7.63,3.76,14.58,9.19,20.24c4.29,4.47,5.41,9.01,1.87,14.13
		c-1.74,2.51-3.71,4.86-5.76,7.16l12.23,8.56C327.5,252.85,328.98,251.12,330.37,249.31z"/>
	<path class="st1" d="M62.6,289.96c-1.25-22.01,1.04-25.93,21.88-30.07c17.83-3.54,28.53-19.45,26.01-38.84
		c-3.61-27.79-18.24-49.25-39.09-66.94c-8.43-7.15-8.57-7.72,1-13.94c8.73-5.67,18.64-8.63,28.43-11.33
		c7.88-2.18,15.37,0.19,20.31,7.79c5.58,8.59,13.87,12.87,23.86,13.99c8.25,0.93,16.11-1.71,24.12-2.98
		c13.13-2.08,17.7,2.11,16.21,15.4c-0.6,5.33-2.6,10.23-5.65,14.7c-8.8,12.88-20.3,22.49-34.8,28.25
		c-5.77,2.29-9.74,5.65-10.4,12.05c-0.95,9.25,10.77,31.03,19.22,36.34l14.07-10.55c-0.16-0.34-0.32-0.67-0.52-1.01
		c-2.12-3.65-4.74-7.01-7.06-10.55c-3.63-5.55-4.06-9.8,3.03-13.67c9.65-5.26,17.88-12.68,25.27-20.84
		c10.56-11.67,17.42-24.91,15.38-41.28c-2.65-21.28-11-34.26-35.41-28.22c-4.11,1.02-8.41,1.27-12.51,2.33
		c-9.45,2.43-16.37-0.03-21.36-8.88c-4.91-8.72-13.51-13.26-23.03-12.68c-17.34,1.06-34.11,5-49.28,14.44
		c-20.12,12.52-26.15,32.32-29.18,53.91c-3.6,25.64-4.41,50.78,12.41,72.95c2.1,2.76,1.62,5.97,1.01,9.17
		c-4.92,25.62-3.55,50.19,1.61,74.03l17.87-13.4C64.22,310.66,63.25,301.39,62.6,289.96z M55.49,228.09
		c-6.91-18.1-5.3-36.48-1.85-54.98c1.22-6.55,3.86-6.81,8.24-2.73c14.28,13.29,23.98,29.28,28.57,48.3
		c2.3,12.18-1.5,21.04-10.13,23.66C70.65,245.27,59.65,239.01,55.49,228.09z"/>
	<path class="st2" d="M415.56,637.53H84.68c-4.83,0-9.15-2.21-12.02-5.67c-2.24-2.7-3.58-6.16-3.58-9.93v-277.3l168.1-126.07
		l167.66,117.36v0.03v92.62c0,2.6,0.93,4.99,2.47,6.84c1.97,2.37,4.93,3.87,8.25,3.87c5.92,0,10.72-4.8,10.72-10.72V324.79v-0.03
		l-0.07-0.05l-19.09-13.37L326,254.56L313.76,246l-77.01-53.91l-69.01,51.75l-14.07,10.55l-87.69,65.77l-17.87,13.4l-0.46,288.36
		c0,8.94,3.18,17.14,8.47,23.55c6.8,8.23,17.07,13.48,28.56,13.48h330.88c5.92,0,10.72-4.8,10.72-10.72c0-2.57-0.91-4.93-2.42-6.78
		C421.9,639.06,418.91,637.53,415.56,637.53z"/>
</g>
</svg>
