<?xml version="1.0" encoding="utf-8"?>
<!-- Generator: Adobe Illustrator 25.2.3, SVG Export Plug-In . SVG Version: 6.00 Build 0)  -->
<svg version="1.1" id="Layer_1" xmlns="http://www.w3.org/2000/svg" xmlns:xlink="http://www.w3.org/1999/xlink" x="0px" y="0px"
	 viewBox="0 0 500 221" style="enable-background:new 0 0 500 221;" xml:space="preserve">
<style type="text/css">
	.st0{fill:none;}
	.st1{fill:#FFFFFF;}
</style>
<g>
	<path class="st0" d="M80.8,101.2c0-0.6-0.5-1-1-1c-0.6,0-1,0.5-1,1c0,0.6,0.5,1,1,1C80.4,102.3,80.8,101.8,80.8,101.2z"/>
	<path class="st0" d="M101.3,129.6c-0.2-1.1-0.4-2-0.4-2.9c-0.1-1.3-0.9-2-2-2.4c-0.2-0.1-0.4-0.1-0.6-0.3c-0.8-0.5-1.5-0.3-2.2,0.2
		c-1.3,1-2.6,2-4,3c-1.1,0.8-1.5,3.8-0.7,4.9c0.2,0.2,0.5,0.4,0.7,0.5c1,0.4,2,0.7,3,1c0.8,0.3,1.5,0.1,2.2-0.4
		c1.1-0.8,2.2-1.6,3.2-2.5C100.8,130.5,101.1,129.9,101.3,129.6z"/>
	<path class="st0" d="M85.6,120.2c-0.1,1.2,0,2.3,0.1,3.5c0,0.8,0.3,1.3,1.1,1.6c0.7,0.3,1.3,0.6,2,1c0.7,0.4,1.4,0.3,2.1-0.2
		c1.3-0.9,2.5-1.9,3.8-2.7c1.2-0.8,1.8-1.7,1.3-3.2c-0.8-2.9,0-2.5-3-3.7c-0.5-0.2-1-0.4-1.5-0.6c-0.2-0.1-0.4-0.1-0.7-0.2
		c-0.3,0.1-0.6,0.2-0.9,0.4c-1.2,0.8-2.4,1.6-3.5,2.6C85.9,119,85.6,119.6,85.6,120.2z"/>
	<path class="st0" d="M83.3,101.4c0.6,0,1-0.5,1-1c0-0.6-0.5-1-1-1c-0.6,0-1,0.5-1,1C82.3,100.9,82.7,101.4,83.3,101.4z"/>
	<path class="st0" d="M94.4,135.6c-0.6-0.2-1.1-0.4-1.6-0.6c-2.4-0.8-2.1-0.9-3.1,1.3c-0.4,0.9-0.1,1.4,0.6,1.8
		c1.3,0.6,2.6,1.1,3.9,1.7c0.8,0.4,1.1,0,1.3-0.7c0.1-0.6,0.2-1.2,0.2-1.7C95.6,136.4,95.2,135.9,94.4,135.6z"/>
	<path class="st0" d="M83.6,121.1c0.4-1.6-0.4-3-2-4.1c-0.7-0.5-1.1-0.5-1.4,0.4c-0.4,1.5-0.7,3-0.9,4.5c-0.1,1,0.3,2.1,0.5,3.2
		c0.1,0.5,0.5,0.6,1,0.4C83.9,123.9,83.6,124.5,83.6,121.1z"/>
	<path class="st0" d="M87.8,128c-0.9-0.5-1.8-1-2.8-1.4c-1.1-0.4-3.5,1.1-3.6,2.3c0,0.3,0,0.6,0.1,0.8c1.3,2.1,2.8,4.1,4.8,5.6
		c0.2,0.1,0.7,0.2,0.8,0.1c0.9-1,1.9-1.9,2.1-3.3c-0.2-1-0.3-2-0.6-3C88.5,128.7,88.2,128.2,87.8,128z"/>
	<path class="st0" d="M82.6,115.1c0.6,0.4,1.1,0.9,1.7,1.3c0.5,0.4,1,0.4,1.5,0.1c1-0.7,1.9-1.3,2.8-2.1c0.3-0.3,0.4-0.8,0.6-1
		c-0.2-1-0.2-1.8-0.4-2.5c-0.1-0.2-0.6-0.5-0.9-0.4c-2.1,0.5-3.9,1.7-5.3,3.3C82,114.2,82,114.7,82.6,115.1z"/>
	<path class="st0" d="M159.1,95c0.7-1.2,1-2.6,1.2-3.9c0.7-3.8,0.5-7.6,0-11.5c-0.6-4-1.1-7.9-1.4-11.9c-0.2-2.7,0.5-5.4,0.4-8.1
		c-0.1-2.2-0.8-4.4-1.2-6.6c-0.3,0-0.5-0.1-0.8-0.1c-0.5,0.8-1.1,1.5-1.6,2.3c-0.4,0.7-0.6,1.5-1,2.2c-1.1,2-1.7,2.1-3.7,1.1
		c-0.6-0.3-1.3-0.7-1.9-1c-3.5-2-7.1-2-10.8-0.7c-3.5,1.3-7,2.6-10.4,4c-0.8,0.3-1.5,0.9-1.9,1.6c-1.1,1.8-0.5,7.8,1.4,9.3
		c4,3.4,3.9,9.5,1,13.3c-0.5,0.7-1.1,1.3-1.7,2l30.7,21.5c0-0.4,0-0.8-0.1-1.2C157.2,103.1,156.9,98.9,159.1,95z M137.5,68.5
		c-2,0-3.6-1.6-3.6-3.6c0-2,1.6-3.6,3.6-3.6c2,0,3.6,1.6,3.6,3.6C141.1,66.9,139.5,68.5,137.5,68.5z"/>
	<path class="st0" d="M91.8,113.6c1.2,0.8,2.6,1.3,4,1.9c0.7-0.3,1.2-0.5,1.7-0.8c1.6-0.9,1.6-0.9,0.2-1.9c-1.7-1.2-3.6-2.1-5.7-2.4
		c-0.3,0-0.9,0.2-0.9,0.4C90.9,111.8,90.9,113,91.8,113.6z"/>
	<path class="st0" d="M34,82.4c3.3-1,4.7-4.3,3.8-8.9c-1.7-7.2-5.4-13.2-10.8-18.2c-1.7-1.5-2.7-1.4-3.1,1c-1.3,7-1.9,13.9,0.7,20.8
		C26.2,81.1,30.3,83.5,34,82.4z"/>
	<path class="st0" d="M97.5,118.4c0.1,0.7,0.1,1.5,0.3,2.2c0.1,0.4,0.3,1,0.7,1.2c0.7,0.5,1.5,0.9,2.4,1.2c0.4,0.1,0.9,0.1,1.3,0
		c0.6-0.2,1.2-0.5,1.9-0.8c0.5-0.2,0.8-0.6,0.5-1.1c-1-1.7-2.1-3.3-3.2-4.9c-0.2-0.3-0.7-0.5-0.9-0.6
		C98.4,115.6,97.3,116.8,97.5,118.4z"/>
	<path class="st0" d="M103.5,124.8c-0.9,0.1-1.1,0.3-1,1.2c0.1,0.7,0.3,1.4,0.4,2.2c0.3,1.8,0.4,1.9,2.3,1.9c0.6,0,1.6,0.3,1.5-1
		c-0.1-1.2-0.3-2.3-0.6-3.4c-0.2-0.8-0.7-1.1-1.5-1C104.2,124.8,103.9,124.8,103.5,124.8z"/>
	<path class="st0" d="M54.4,73.2c0.2-2.4,1.8-3.7,3.9-4.6c5.5-2.2,9.8-5.8,13.2-10.7c1.2-1.7,1.9-3.5,2.1-5.6c0.6-5-1.2-6.6-6.1-5.8
		c-3,0.5-6,1.5-9.1,1.1c-3.8-0.4-6.9-2-9-5.3c-1.9-2.9-4.7-3.8-7.7-2.9c-3.7,1-7.4,2.1-10.7,4.3c-3.6,2.4-3.6,2.6-0.4,5.3
		c7.9,6.7,13.4,14.8,14.8,25.3c1,7.3-3.1,13.3-9.8,14.7c-7.9,1.6-8.7,3-8.3,11.4c0.2,4.3,0.6,7.8,1.3,11.4l33.1-24.9
		C58.5,84.9,54.1,76.7,54.4,73.2z M47.8,55.7c-2,0-3.6-1.6-3.6-3.6c0-2,1.6-3.6,3.6-3.6c2,0,3.6,1.6,3.6,3.6
		C51.4,54,49.7,55.7,47.8,55.7z"/>
	<path class="st0" d="M105.6,132c-0.8-0.1-1.5-0.1-2.3-0.1c-0.5,0.1-1.1,0.2-1.5,0.5c-0.8,0.6-1.4,1.2-2.2,1.8
		c-1.4,1-2.3,2.2-1.9,4.1c0.1,0.5-0.1,1-0.1,1.6c0,0.6,0.2,1,0.9,1c1.1,0,2.3,0.1,3.4,0c1.7-0.1,2.9-1,3.8-2.5
		c0.9-1.5,1.1-3.1,1.3-4.7C107,132.6,106.7,132.1,105.6,132z"/>
	<g>
		<path class="st1" d="M212.4,130.3c-2.8,0-5.3,2.3-5.3,5.2c0,2.9,2.4,5.3,5.3,5.3c2.9,0,5.3-2.4,5.3-5.3
			C217.6,132.6,215.3,130.3,212.4,130.3z"/>
		<g>
			<path class="st1" d="M305,150.5c-5.5,0-7.8,4.1-8.2,7.4h16.5C313,154.7,310.8,150.5,305,150.5z"/>
			<path class="st1" d="M366.3,140.3h-10.4v12.5h10.4c3.9,0,6.8-2.4,6.8-6.2C373.1,142.6,370.1,140.3,366.3,140.3z"/>
			<path class="st1" d="M402.9,150.5c-5.5,0-7.8,4.1-8.2,7.4h16.5C411,154.7,408.8,150.5,402.9,150.5z"/>
			<polygon class="st1" points="172,131.6 172,177.8 201.4,177.8 201.4,169.1 181.9,169.1 181.9,131.6 			"/>
			<rect x="208" y="144.4" class="st1" width="8.8" height="33.4"/>
			<path class="st1" d="M236.7,178.6c3.7,0,6-1,7.3-2.1l-1.9-6.6c-0.5,0.5-1.7,1-3,1c-1.9,0-3-1.6-3-3.7v-15.1h6.8v-7.7h-6.8v-9.1
				h-8.9v9.1h-5.5v7.7h5.5v17.4C227.3,175.4,230.6,178.6,236.7,178.6z"/>
			<path class="st1" d="M262.5,170.8c-1.9,0-3-1.6-3-3.7v-15.1h6.8v-7.7h-6.8v-9.1h-8.9v9.1h-5.5v7.7h5.5v17.4c0,6,3.3,9.1,9.5,9.1
				c3.7,0,6-1,7.3-2.1l-1.9-6.6C265.1,170.3,263.9,170.8,262.5,170.8z"/>
			<rect x="272.3" y="131.6" class="st1" width="8.8" height="46.2"/>
			<path class="st1" d="M305,143.5c-10.2,0-17.3,7.8-17.3,17.5c0,10.7,7.7,17.6,17.9,17.6c5.2,0,10.4-1.6,13.8-4.6l-3.9-5.7
				c-2.1,2.1-6.1,3.3-8.9,3.3c-5.7,0-9.1-3.5-9.6-7.7h24.8v-1.9C321.7,151,314.9,143.5,305,143.5z M296.7,157.9
				c0.4-3.3,2.8-7.4,8.2-7.4c5.8,0,8,4.2,8.2,7.4H296.7z"/>
			<path class="st1" d="M367.6,131.6H346v46.2h9.8v-16.4h11.8c10,0,15.5-6.9,15.5-14.9C383.1,138.4,377.6,131.6,367.6,131.6z
				 M366.3,152.7h-10.4v-12.5h10.4c3.9,0,6.8,2.4,6.8,6.2C373.1,150.3,370.1,152.7,366.3,152.7z"/>
			<path class="st1" d="M402.9,143.5c-10.2,0-17.3,7.8-17.3,17.5c0,10.7,7.7,17.6,17.9,17.6c5.2,0,10.4-1.6,13.8-4.6l-3.9-5.7
				c-2.1,2.1-6.1,3.3-8.9,3.3c-5.7,0-9.1-3.5-9.6-7.7h24.8v-1.9C419.7,151,412.9,143.5,402.9,143.5z M394.7,157.9
				c0.4-3.3,2.8-7.4,8.2-7.4c5.8,0,8,4.2,8.2,7.4H394.7z"/>
			<path class="st1" d="M439.7,170.8c-1.9,0-3-1.6-3-3.7v-15.1h6.8v-7.7h-6.8v-9.1h-8.9v9.1h-5.5v7.7h5.5v17.4c0,6,3.3,9.1,9.5,9.1
				c3.7,0,6-1,7.3-2.1l-1.9-6.6C442.3,170.3,441,170.8,439.7,170.8z"/>
			<path class="st1" d="M456.2,153.6c0-1.9,2.1-3.3,5.3-3.3c4.1,0,7.9,1.7,9.9,3.9l3.5-6c-3.3-2.6-7.8-4.6-13.5-4.6
				c-8.8,0-13.7,4.9-13.7,10.5c0,13.1,19.9,8.6,19.9,14.2c0,2.1-1.8,3.6-5.6,3.6c-4.2,0-9.1-2.3-11.6-4.6l-3.8,6.2
				c3.5,3.3,9.1,5.2,14.9,5.2c9.3,0,14.5-4.6,14.5-10.7C475.9,154.4,456.2,158.6,456.2,153.6z"/>
		</g>
	</g>
	<path class="st1" d="M47.8,48.4c-2,0-3.6,1.6-3.6,3.6c0,2,1.6,3.6,3.6,3.6c2,0,3.6-1.6,3.6-3.6C51.4,50.1,49.7,48.4,47.8,48.4z"/>
	<path class="st1" d="M137.5,61.3c-2,0-3.6,1.6-3.6,3.6c0,2,1.6,3.6,3.6,3.6c2,0,3.6-1.6,3.6-3.6C141.1,62.9,139.5,61.3,137.5,61.3z
		"/>
	<path class="st1" d="M108.8,136.5c0.1-0.3,0.6-0.6,0.9-0.6c1.6,0.3,3.1,0.8,4.2,2.1c0.9,1.1,1.8,2.1,2.8,3c1.1,0.9,1.9,0.6,2.4-0.7
		c1.8-4.6-1-11.7-8-11.1c-1.8,0.1-1.8,0.1-2-1.7c0-0.4-0.2-0.7-0.3-1.1c-0.8-4.6-2.9-8.7-6-12.1c-1.5-1.7-3.2-3.3-5.3-4.4
		c-1-0.6-1.1-1-0.5-2c1.2-2,2.8-3.6,5-4.4c1.6-0.6,3.3-1.1,5-1.5c1.3-0.4,2.7-0.6,4-1c1.2-0.4,1.4-1.5,0.5-2.4
		c-0.4-0.4-0.9-0.8-1.4-1c-2.8-1.4-5.8-1.9-8.9-1.7c-2.5,0.1-4.8,0.8-6.4,2.9c-1.5,1.9-2.8,3.8-3.3,6.2c-0.4,1.9-0.7,3.7-3.3,3.4
		c-0.1,0-0.1,0-0.2,0c-1,0.1-1.7-0.4-1.7-1.4c0-0.6,0.1-1.2,0.2-1.7c1-3.8-0.3-7.4-3.4-9.4c-1.5-0.9-2.5-0.8-3.7,0.4
		c-1.5,1.5-2.2,3.4-2.3,5.5c-0.1,2.8,0.6,5.3,2.5,7.4c1.3,1.5,1.3,3,0.2,4.7c-0.2,0.4-0.5,0.8-0.7,1.2c-0.4,0.9-1,1-1.9,0.8
		c-1.8-0.3-3.6-0.7-5.4-0.9c-3.5-0.4-6.9,0-9.6,2.4c-2.6,2.2-4.2,5.2-5,8.5c-0.4,1.3-0.6,2.6,0,4c0.4,0.9,1.1,1.3,2,0.8
		c0.6-0.3,1.2-0.8,1.6-1.3c3.7-4.8,8.5-7.3,14.7-7c1.8,0.1,1.8,0.2,2.2,1.9c0.4,1.9,0.9,3.8,1.8,5.6c2.6,5.4,6.9,9,12.4,11.3
		c2.1,0.9,2.1,0.9,2,3.2c0.3,1.3,0.4,2.8,0.8,4c1.4,3.7,3.9,6.3,8,6.9c1.7,0.2,3.3-0.2,4.4-1.7c0.7-0.9,0.6-1.8-0.2-2.5
		c-0.5-0.5-1-0.9-1.6-1.2c-2.3-1.3-3.8-3-4.2-5.7c-0.1-0.8,0.1-1.1,0.8-1.2c0.5-0.1,1.1,0,1.6-0.2c1.1-0.5,2.1-0.3,3.2,0.2
		c0.8,0.4,1.8,0.6,2.7,0.7c0.8,0.1,1-0.5,0.5-1.1c-0.5-0.6-1.1-1-1.5-1.6c-0.3-0.4-0.5-1-0.4-1.4
		C107.9,138.6,108.4,137.5,108.8,136.5z M106.1,125.7c0.3,1.1,0.5,2.3,0.6,3.4c0.1,1.2-0.8,0.9-1.5,1c-1.9,0-2-0.1-2.3-1.9
		c-0.1-0.7-0.3-1.4-0.4-2.2c-0.1-0.9,0.1-1.2,1-1.2c0.3,0,0.7,0,1-0.1C105.3,124.6,105.9,124.9,106.1,125.7z M101.3,116.2
		c1.1,1.6,2.1,3.3,3.2,4.9c0.4,0.6,0.1,0.9-0.5,1.1c-0.6,0.3-1.2,0.6-1.9,0.8c-0.4,0.1-0.9,0.2-1.3,0c-0.8-0.3-1.6-0.7-2.4-1.2
		c-0.4-0.2-0.6-0.8-0.7-1.2c-0.2-0.7-0.2-1.5-0.3-2.2c-0.2-1.7,0.9-2.8,2.9-2.8C100.6,115.7,101.1,115.8,101.3,116.2z M91,110.7
		c0-0.2,0.6-0.4,0.9-0.4c2.1,0.3,4,1.2,5.7,2.4c1.5,1.1,1.5,1.1-0.2,1.9c-0.5,0.3-1.1,0.5-1.7,0.8c-1.4-0.6-2.8-1.1-4-1.9
		C90.9,113,90.9,111.8,91,110.7z M90.7,115.6c0.3,0.1,0.5,0.1,0.7,0.2c0.5,0.2,1,0.4,1.5,0.6c3,1.3,2.2,0.8,3,3.7
		c0.4,1.5-0.1,2.4-1.3,3.2c-1.3,0.8-2.6,1.8-3.8,2.7c-0.7,0.5-1.3,0.6-2.1,0.2c-0.7-0.3-1.3-0.7-2-1c-0.8-0.3-1.1-0.9-1.1-1.6
		c0-1.2-0.1-2.3-0.1-3.5c0-0.6,0.3-1.2,0.7-1.6c1.1-0.9,2.3-1.7,3.5-2.6C90.1,115.9,90.4,115.8,90.7,115.6z M83.3,99.3
		c0.6,0,1,0.5,1,1c0,0.6-0.5,1-1,1c-0.6,0-1-0.5-1-1C82.3,99.8,82.7,99.3,83.3,99.3z M82.5,113.8c1.5-1.6,3.2-2.8,5.3-3.3
		c0.3-0.1,0.9,0.2,0.9,0.4c0.2,0.8,0.3,1.6,0.4,2.5c-0.1,0.2-0.2,0.8-0.6,1c-0.9,0.7-1.9,1.4-2.8,2.1c-0.5,0.4-1,0.3-1.5-0.1
		c-0.5-0.5-1.1-0.9-1.7-1.3C82,114.7,82,114.2,82.5,113.8z M79.8,102.3c-0.6,0-1-0.5-1-1c0-0.6,0.5-1,1-1c0.6,0,1,0.5,1,1
		C80.8,101.8,80.4,102.3,79.8,102.3z M79.9,125c-0.2-1-0.5-2.1-0.5-3.2c0.1-1.5,0.5-3,0.9-4.5c0.2-0.9,0.6-0.9,1.4-0.4
		c1.5,1.1,2.4,2.4,2,4.1c0,3.3,0.3,2.8-2.7,4.3C80.3,125.7,80,125.6,79.9,125z M87.2,135.4c-0.1,0.1-0.6,0-0.8-0.1
		c-2-1.5-3.5-3.5-4.8-5.6c-0.1-0.2-0.2-0.5-0.1-0.8c0.1-1.2,2.5-2.7,3.6-2.3c1,0.4,1.9,0.8,2.8,1.4c0.4,0.2,0.7,0.7,0.8,1.1
		c0.3,1,0.4,2,0.6,3C89,133.6,88,134.5,87.2,135.4z M95.4,139.1c-0.2,0.6-0.5,1.1-1.3,0.7c-1.3-0.6-2.6-1.1-3.9-1.7
		c-0.8-0.4-1-0.9-0.6-1.8c1-2.2,0.7-2.1,3.1-1.3c0.6,0.2,1.1,0.4,1.6,0.6c0.9,0.3,1.3,0.8,1.2,1.8C95.6,137.9,95.5,138.6,95.4,139.1
		z M95.1,133.7c-1-0.3-2-0.7-3-1c-0.3-0.1-0.6-0.3-0.7-0.5c-0.8-1-0.4-4.1,0.7-4.9c1.3-1,2.7-2,4-3c0.7-0.5,1.4-0.7,2.2-0.2
		c0.2,0.1,0.4,0.2,0.6,0.3c1.1,0.4,1.9,1.1,2,2.4c0.1,0.9,0.3,1.8,0.4,2.9c-0.2,0.3-0.4,0.9-0.8,1.2c-1,0.9-2.1,1.7-3.2,2.5
		C96.6,133.8,95.9,134,95.1,133.7z M106.9,133.6c-0.2,1.6-0.5,3.3-1.3,4.7c-0.9,1.5-2.1,2.3-3.8,2.5c-1.1,0.1-2.2,0-3.4,0
		c-0.7,0-0.9-0.4-0.9-1c0-0.5,0.2-1.1,0.1-1.6c-0.4-1.9,0.5-3.1,1.9-4.1c0.8-0.6,1.4-1.3,2.2-1.8c0.4-0.3,1-0.4,1.5-0.5
		c0.8,0,1.5,0,2.3,0.1C106.7,132.1,107,132.6,106.9,133.6z"/>
	<path class="st1" d="M128.5,85c2.9-3.8,2.9-10-1-13.3c-1.9-1.6-2.5-7.5-1.4-9.3c0.4-0.7,1.2-1.3,1.9-1.6c3.4-1.4,6.9-2.7,10.4-4
		c3.7-1.4,7.3-1.3,10.8,0.7c0.6,0.4,1.2,0.7,1.9,1c2,1.1,2.5,0.9,3.7-1.1c0.4-0.7,0.6-1.5,1-2.2c0.5-0.8,1.1-1.5,1.6-2.3
		c0.3,0,0.5,0.1,0.8,0.1c0.4,2.2,1.1,4.4,1.2,6.6c0.1,2.7-0.5,5.4-0.4,8.1c0.2,4,0.8,8,1.4,11.9c0.6,3.8,0.7,7.7,0,11.5
		c-0.2,1.3-0.6,2.7-1.2,3.9c-2.2,3.9-1.8,8-1.6,12.2c0,0.4,0,0.8,0.1,1.2l7.2,5.1c-0.1-2.3-1.9-8.2-1.9-9.4
		c-0.2-2.6,0.4-5.1,1.4-7.4c3.1-7.2,2.3-14.5,0.9-21.8c-0.6-3.2-0.8-6.2-0.2-9.4c0.8-4.1,0-8.2-1-12.2c-0.6-2.3-1.3-4.7-2.2-6.9
		c-0.9-2.3-3.9-4-6.1-1c-1.1,1.5-2.4,3-3.2,4.6c-0.7,1.4-1.6,1.6-3.1,1.4c-2.5-0.4-5-0.8-7.4-0.9c-3.1-0.1-5.8,1.3-8.6,2.5
		c-2.8,1.1-5.6,2.1-8.5,2.8c-2,0.5-3,1.6-3.6,3.6c-0.9,2.9-1.3,5.8-0.9,8.7c0.4,2.9,1.4,5.5,3.5,7.6c1.6,1.7,2,3.4,0.7,5.3
		c-0.7,0.9-1.4,1.8-2.2,2.7l4.6,3.2C127.4,86.3,127.9,85.7,128.5,85z"/>
	<path class="st1" d="M27.3,100.4c-0.5-8.3,0.4-9.8,8.3-11.4c6.7-1.3,10.8-7.3,9.8-14.7C44,63.8,38.5,55.7,30.6,49
		c-3.2-2.7-3.2-2.9,0.4-5.3c3.3-2.1,7-3.3,10.7-4.3c3-0.8,5.8,0.1,7.7,2.9c2.1,3.2,5.2,4.9,9,5.3c3.1,0.4,6.1-0.6,9.1-1.1
		c5-0.8,6.7,0.8,6.1,5.8c-0.2,2-1,3.9-2.1,5.6c-3.3,4.9-7.7,8.5-13.2,10.7c-2.2,0.9-3.7,2.1-3.9,4.6c-0.4,3.5,4.1,11.7,7.3,13.7
		l5.3-4c-0.1-0.1-0.1-0.3-0.2-0.4c-0.8-1.4-1.8-2.6-2.7-4c-1.4-2.1-1.5-3.7,1.1-5.2c3.6-2,6.8-4.8,9.5-7.9c4-4.4,6.6-9.4,5.8-15.6
		c-1-8-4.2-12.9-13.4-10.7c-1.6,0.4-3.2,0.5-4.7,0.9c-3.6,0.9-6.2,0-8.1-3.4c-1.9-3.3-5.1-5-8.7-4.8c-6.6,0.4-12.9,1.9-18.6,5.5
		c-7.6,4.7-9.9,12.2-11,20.4c-1.4,9.7-1.7,19.2,4.7,27.6c0.8,1,0.6,2.3,0.4,3.5c-1.9,9.7-1.3,19,0.6,28l6.8-5.1
		C27.9,108.2,27.5,104.7,27.3,100.4z M24.6,77c-2.6-6.8-2-13.8-0.7-20.8c0.5-2.5,1.5-2.6,3.1-1c5.4,5,9.1,11.1,10.8,18.2
		c0.9,4.6-0.6,8-3.8,8.9C30.3,83.5,26.2,81.1,24.6,77z"/>
	<path class="st1" d="M160.7,169.8h-125c-1.8,0-3.5-0.8-4.5-2.1c-0.8-1-1.4-2.3-1.4-3.8V121l63.5-47.6l63.4,44.3v0v35
		c0,1,0.4,1.9,0.9,2.6c0.7,0.9,1.9,1.5,3.1,1.5c2.2,0,4-1.8,4-4v-39.2v0l0,0l-7.2-5.1L126.8,87l-4.6-3.2L93.1,63.4L67,82.9l-5.3,4
		l-33.1,24.9l-6.8,5.1l-0.2,47.1c0,3.4,1.2,6.5,3.2,8.9c2.6,3.1,6.5,5.1,10.8,5.1h125c2.2,0,4-1.8,4-4c0-1-0.3-1.9-0.9-2.6
		C163,170.4,161.9,169.8,160.7,169.8z"/>
</g>
</svg>
